<svg viewBox="0 0 800 450" xmlns="http://www.w3.org/2000/svg">
  <rect width="800" height="450" fill="#0f172a"/>

  <!-- Window chrome -->
  <rect x="40" y="40" width="720" height="370" rx="10" fill="#1e293b" stroke="#334155" stroke-width="1.5"/>
  <rect x="40" y="40" width="720" height="32" rx="10" fill="#263346"/>
  <rect x="40" y="58" width="720" height="14" fill="#263346"/>
  <circle cx="64" cy="56" r="5" fill="#ef4444" opacity="0.7"/>
  <circle cx="82" cy="56" r="5" fill="#f59e0b" opacity="0.7"/>
  <circle cx="100" cy="56" r="5" fill="#22c55e" opacity="0.7"/>
  <text x="400" y="61" text-anchor="middle" font-family="Verdana, monospace" font-size="11" fill="#64748b">Agentic Hub — localhost:8787</text>

  <!-- Sidebar -->
  <rect x="40" y="72" width="140" height="338" fill="#161f2e" rx="0"/>
  <rect x="40" y="72" width="140" height="338" fill="#161f2e"/>

  <rect x="52" y="92" width="116" height="22" rx="4" fill="#f97316" opacity="0.15"/>
  <text x="62" y="107" font-family="Verdana, sans-serif" font-size="11" fill="#f97316">chat</text>

  <text x="62" y="133" font-family="Verdana, sans-serif" font-size="11" fill="#475569">tasks</text>
  <text x="62" y="157" font-family="Verdana, sans-serif" font-size="11" fill="#475569">fleet</text>
  <text x="62" y="181" font-family="Verdana, sans-serif" font-size="11" fill="#475569">topics</text>
  <text x="62" y="205" font-family="Verdana, sans-serif" font-size="11" fill="#475569">sessions</text>
  <text x="62" y="229" font-family="Verdana, sans-serif" font-size="11" fill="#475569">wiki</text>
  <text x="62" y="253" font-family="Verdana, sans-serif" font-size="11" fill="#475569">terminal</text>
  <text x="62" y="277" font-family="Verdana, sans-serif" font-size="11" fill="#475569">sprint</text>

  <!-- Hermes badge bottom of sidebar -->
  <rect x="52" y="370" width="116" height="22" rx="4" fill="#0f172a" stroke="#22c55e" stroke-width="1"/>
  <circle cx="66" cy="381" r="4" fill="#22c55e"/>
  <text x="78" y="386" font-family="Verdana, monospace" font-size="10" fill="#22c55e">hermes online</text>

  <!-- Main panel -->
  <!-- Chat area -->
  <rect x="192" y="84" width="560" height="200" rx="6" fill="#0f172a" stroke="#1e293b" stroke-width="1"/>

  <!-- Chat messages -->
  <rect x="208" y="96" width="320" height="28" rx="4" fill="#1e293b"/>
  <text x="220" y="115" font-family="Verdana, sans-serif" font-size="10" fill="#94a3b8">what did i focus on this week?</text>

  <rect x="380" y="134" width="360" height="40" rx="4" fill="#162032" stroke="#1e3a5f" stroke-width="1"/>
  <text x="392" y="150" font-family="Verdana, sans-serif" font-size="10" fill="#7dd3fc">This week the main focus was the architecture</text>
  <text x="392" y="166" font-family="Verdana, sans-serif" font-size="10" fill="#7dd3fc">refactor on Synergym...</text>

  <rect x="208" y="184" width="280" height="28" rx="4" fill="#1e293b"/>
  <text x="220" y="203" font-family="Verdana, sans-serif" font-size="10" fill="#94a3b8">open tasks from vault?</text>

  <!-- Input area -->
  <rect x="208" y="264" width="492" height="28" rx="4" fill="#0f172a" stroke="#334155" stroke-width="1"/>
  <text x="222" y="282" font-family="Verdana, monospace" font-size="10" fill="#334155">ask anything...</text>
  <rect x="708" y="264" width="36" height="28" rx="4" fill="#f97316" opacity="0.8"/>

  <!-- Bottom stats row -->
  <rect x="192" y="300" width="176" height="100" rx="6" fill="#0f172a" stroke="#1e293b" stroke-width="1"/>
  <text x="208" y="320" font-family="Verdana, sans-serif" font-size="10" fill="#64748b" font-weight="bold">FLEET</text>
  <text x="208" y="340" font-family="Verdana, sans-serif" font-size="10" fill="#94a3b8">evening-journal</text>
  <circle cx="348" cy="336" r="4" fill="#22c55e"/>
  <text x="208" y="358" font-family="Verdana, sans-serif" font-size="10" fill="#94a3b8">weekly-review</text>
  <circle cx="348" cy="354" r="4" fill="#22c55e"/>
  <text x="208" y="376" font-family="Verdana, sans-serif" font-size="10" fill="#94a3b8">weekly-wiki</text>
  <circle cx="348" cy="372" r="4" fill="#22c55e"/>

  <rect x="380" y="300" width="176" height="100" rx="6" fill="#0f172a" stroke="#1e293b" stroke-width="1"/>
  <text x="396" y="320" font-family="Verdana, sans-serif" font-size="10" fill="#64748b" font-weight="bold">TASKS</text>
  <text x="396" y="340" font-family="Verdana, sans-serif" font-size="10" fill="#94a3b8">in_progress</text>
  <text x="526" y="340" font-family="Verdana, sans-serif" font-size="11" fill="#f97316" font-weight="bold">3</text>
  <text x="396" y="358" font-family="Verdana, sans-serif" font-size="10" fill="#94a3b8">open</text>
  <text x="526" y="358" font-family="Verdana, sans-serif" font-size="11" fill="#94a3b8" font-weight="bold">14</text>

  <rect x="568" y="300" width="184" height="100" rx="6" fill="#0f172a" stroke="#1e293b" stroke-width="1"/>
  <text x="584" y="320" font-family="Verdana, sans-serif" font-size="10" fill="#64748b" font-weight="bold">TOPICS</text>
  <text x="584" y="340" font-family="Verdana, monospace" font-size="9" fill="#475569"># synergym</text>
  <text x="584" y="356" font-family="Verdana, monospace" font-size="9" fill="#475569"># journal</text>
  <text x="584" y="372" font-family="Verdana, monospace" font-size="9" fill="#475569"># dev</text>
  <text x="584" y="388" font-family="Verdana, monospace" font-size="9" fill="#475569"># finance</text>
</svg>
