<svg viewBox="0 0 800 450" xmlns="http://www.w3.org/2000/svg">
  <rect width="800" height="450" fill="#0f172a"/>

  <!-- Window chrome -->
  <rect x="40" y="40" width="720" height="370" rx="10" fill="#1e293b" stroke="#334155" stroke-width="1.5"/>
  <rect x="40" y="40" width="720" height="32" rx="10" fill="#263346"/>
  <rect x="40" y="58" width="720" height="14" fill="#263346"/>
  <circle cx="64" cy="56" r="5" fill="#ef4444" opacity="0.7"/>
  <circle cx="82" cy="56" r="5" fill="#f59e0b" opacity="0.7"/>
  <circle cx="100" cy="56" r="5" fill="#22c55e" opacity="0.7"/>
  <text x="400" y="61" text-anchor="middle" font-family="Verdana, monospace" font-size="11" fill="#64748b">buildlog — log.ozzo.blog</text>

  <!-- Header / new entry -->
  <rect x="64" y="92" width="672" height="46" rx="8" fill="#0f172a" stroke="#334155" stroke-width="1"/>
  <text x="84" y="120" font-family="Verdana, sans-serif" font-size="12" fill="#475569">what did you ship today?</text>
  <rect x="676" y="104" width="44" height="22" rx="5" fill="#f97316" opacity="0.85"/>
  <text x="698" y="119" text-anchor="middle" font-family="Verdana, sans-serif" font-size="11" fill="#0f172a" font-weight="bold">post</text>

  <!-- Entry: newest -->
  <rect x="64" y="156" width="672" height="68" rx="8" fill="#162032" stroke="#1e3a5f" stroke-width="1"/>
  <text x="84" y="178" font-family="Verdana, monospace" font-size="11" fill="#f97316">day 12 · 07/26</text>
  <text x="84" y="200" font-family="Verdana, sans-serif" font-size="12" fill="#cbd5e1">linked buildlog from ozzo.blog/projects.</text>
  <text x="84" y="216" font-family="Verdana, sans-serif" font-size="12" fill="#94a3b8">proof-led projects page, ordered by effort.</text>
  <rect x="612" y="166" width="46" height="18" rx="9" fill="#f97316" opacity="0.18"/>
  <text x="635" y="179" text-anchor="middle" font-family="Verdana, sans-serif" font-size="9" fill="#f97316">rails</text>

  <!-- Entry -->
  <rect x="64" y="236" width="672" height="56" rx="8" fill="#0f172a" stroke="#1e293b" stroke-width="1"/>
  <text x="84" y="258" font-family="Verdana, monospace" font-size="11" fill="#f97316">day 11 · 07/25</text>
  <text x="84" y="280" font-family="Verdana, sans-serif" font-size="12" fill="#94a3b8">/feedback live + Tally wired in. deployed.</text>

  <!-- Entry -->
  <rect x="64" y="304" width="672" height="56" rx="8" fill="#0f172a" stroke="#1e293b" stroke-width="1"/>
  <text x="84" y="326" font-family="Verdana, monospace" font-size="11" fill="#f97316">day 9 · 07/23</text>
  <text x="84" y="348" font-family="Verdana, sans-serif" font-size="12" fill="#94a3b8">auth + entry CRUD + public feed. RSS next.</text>

  <!-- Footer hint -->
  <text x="64" y="388" font-family="Verdana, sans-serif" font-size="10" fill="#475569">a dev journal, built in public. not a product — a forcing function.</text>
</svg>
